<?xml version="1.0" encoding="UTF-8" standalone="no"?>
<svg
   version="1.1"
   width="9.7669in"
   height="1.4469in"
   viewBox="0 0 703.2178 104.1744"
   id="svg11"
   sodipodi:docname="Pine Labs.cdr"
   xmlns:inkscape="http://www.inkscape.org/namespaces/inkscape"
   xmlns:sodipodi="http://sodipodi.sourceforge.net/DTD/sodipodi-0.dtd"
   xmlns="http://www.w3.org/2000/svg"
   xmlns:svg="http://www.w3.org/2000/svg">
  <defs
     id="defs11" />
  <sodipodi:namedview
     id="namedview11"
     pagecolor="#ffffff"
     bordercolor="#000000"
     borderopacity="0.25"
     inkscape:showpageshadow="2"
     inkscape:pageopacity="0.0"
     inkscape:pagecheckerboard="0"
     inkscape:deskcolor="#d1d1d1"
     inkscape:document-units="in" />
  <g
     id="Layer1000">
    <g
       id="Layer1001" />
    <g
       id="Layer1002">
      <path
         d="  M102.3769,52.0632 C102.3782,67.8298 102.3866,83.5971 102.3587,99.3637 C102.3574,100.4369 102.9025,101.9454 101.8040,102.4807 C100.5894,103.0705 99.9308,101.5522 99.1873,100.8164 C92.3005,94.0056 85.5125,87.0956 78.5687,80.3445 C76.6274,78.4564 75.8611,76.4417 75.8734,73.7744 C75.9376,60.1470 75.8695,46.5196 75.8507,32.8928 C75.8423,26.5005 75.8468,26.4992 69.2891,26.4992 C55.6616,26.4979 42.0342,26.4473 28.4075,26.5427 C25.8329,26.5608 23.9571,25.7595 22.1670,23.9285 C15.3186,16.9231 8.3378,10.0448 1.4238,3.1036 C0.8074,2.4859 -0.2463,1.8903 0.0522,0.9378 C0.4363,-0.2852 1.7418,0.0580 2.6955,0.0580 C34.6804,0.0385 66.6645,0.0690 98.6494,0.0002 C101.7132,-0.0069 102.4360,1.2888 102.4191,4.0853 C102.3295,20.0783 102.3769,36.0701 102.3769,52.0632 Z"
         style="fill-rule: evenodd; fill: #3db54b; "
         id="path1" />
      <path
         d="  M142.5837,52.3337 C142.5837,36.4568 142.6564,20.5799 142.5247,4.7030 C142.4981,1.4543 143.5654,0.4220 146.7927,0.4570 C160.6414,0.6069 174.4952,0.3493 188.3413,0.6082 C199.3001,0.8139 208.5174,4.7646 213.3603,15.3224 C219.2329,28.1232 217.1761,48.4466 200.0482,55.1594 C194.1678,57.4641 188.0111,57.9695 181.8134,58.0551 C173.0315,58.1745 164.2456,58.2089 155.4669,58.0246 C152.1514,57.9546 150.9115,58.8636 150.9744,62.3783 C151.1762,73.6355 151.0529,84.8980 151.0471,96.1578 C151.0458,99.9515 147.7017,103.4182 144.0092,103.4422 C142.1477,103.4546 142.6207,101.9687 142.6097,100.9767 C142.5552,95.6842 142.5818,90.3923 142.5818,85.0998 C142.5837,74.1799 142.5837,63.2575 142.5837,52.3337 Z Z M151.0588,28.7552 C151.0588,34.8360 151.0867,40.9188 151.0419,46.9997 C151.0276,48.8547 151.5182,50.0589 153.6515,50.0466 C165.7003,49.9765 177.7725,50.3840 189.7902,49.7468 C201.1240,49.1473 207.9802,40.1610 207.5390,27.9474 C207.1283,16.5727 199.4967,8.5246 188.5087,8.3202 C177.1379,8.1087 165.7607,8.2865 154.3873,8.1943 C151.9373,8.1749 150.9621,9.0067 151.0166,11.5267 C151.1412,17.2670 151.0542,23.0117 151.0588,28.7552 Z"
         style="fill-rule: evenodd; fill: #ffffff; "
         id="path2" />
      <path
         d="  M578.1331,89.7681 C578.1331,92.2739 578.1344,93.8473 578.1331,95.4207 C578.1292,100.5212 577.5939,101.1966 572.8873,103.1172 C571.1627,103.8205 570.5969,103.2502 570.4963,101.6404 C570.4613,101.0785 570.4541,100.5154 570.4541,99.9522 C570.4528,69.0963 570.4515,38.2418 570.4613,7.3852 C570.4613,6.0487 570.1978,4.4882 571.3787,3.5805 C573.1409,2.2244 575.2172,0.2883 577.2792,0.8768 C579.0570,1.3855 578.0805,4.0567 578.0948,5.7463 C578.1759,15.6559 578.1357,25.5655 578.1357,35.4745 C578.1357,36.5671 578.1357,37.6598 578.1357,39.5284 C580.6544,36.7533 582.5607,34.4338 584.9743,32.6573 C598.4545,22.7295 627.0777,22.9215 634.4543,48.9514 C638.1864,62.1194 637.6400,75.2395 631.4242,87.7405 C621.6210,107.4585 592.6533,109.5205 579.6092,91.7905 C579.2847,91.3539 578.9668,90.9126 578.1331,89.7681 Z Z M605.1692,96.7301 C611.5778,97.2122 617.8974,94.4734 621.9552,88.1162 C630.4341,74.8320 631.6669,60.6206 624.8522,46.3684 C620.0963,36.4224 611.4058,32.6573 600.5145,33.9011 C590.5893,35.0359 583.7747,40.2804 580.5863,49.6897 C577.0326,60.1794 577.4245,70.8170 581.4986,81.0485 C585.4610,91.0061 592.7467,96.8495 605.1692,96.7301 Z"
         style="fill-rule: evenodd; fill: #ffffff; "
         id="path3" />
      <path
         d="  M547.0488,91.9839 C537.0652,103.6946 524.7056,106.3244 510.7629,102.5968 C501.2724,100.0586 496.8091,93.6695 496.4464,83.3674 C496.1155,73.9775 500.6236,66.9033 509.1603,63.4924 C514.8810,61.2046 520.9554,60.7076 526.9986,60.0970 C530.1292,59.7804 533.2741,59.6013 536.4041,59.2704 C545.8666,58.2719 549.3405,53.1513 546.9774,43.8457 C546.0165,40.0604 543.7008,37.4268 540.1654,35.9942 C532.6233,32.9376 524.9665,32.8311 517.5250,36.1551 C512.8437,38.2450 509.1901,41.6592 508.2558,47.0230 C507.5946,50.8168 504.3505,51.3631 501.7363,52.6322 C500.2531,53.3511 500.0915,51.9165 500.1785,50.8966 C500.8662,42.8154 503.2144,35.3486 510.8050,31.2824 C522.3620,25.0906 534.4173,25.0672 546.1424,30.7893 C552.8117,34.0451 554.9328,40.3861 554.9438,47.4844 C554.9646,60.6563 554.9451,73.8295 554.9620,87.0015 C554.9633,88.6878 554.9957,90.3819 555.1527,92.0598 C555.2987,93.6228 555.9579,95.0827 557.7571,95.0392 C560.1260,94.9815 561.0993,96.5127 562.1095,98.1783 C563.8756,101.0909 563.5408,101.8221 560.2182,102.2101 C552.1142,103.1542 548.3458,100.3415 547.0488,91.9839 Z Z M547.3096,69.7056 C547.3096,68.5818 547.2337,67.4515 547.3252,66.3349 C547.5127,64.0685 547.0047,63.3159 544.5274,64.2619 C540.2971,65.8755 535.7585,66.0650 531.2744,66.4290 C524.8925,66.9487 518.4976,67.4431 512.4459,69.8230 C507.2001,71.8850 504.4433,75.5970 504.2369,81.3631 C504.0196,87.4304 506.0076,92.2194 511.5058,95.0730 C519.1490,99.0386 531.9680,97.2738 538.5738,91.7237 C545.4845,85.9186 547.5069,78.2773 547.3096,69.7056 Z"
         style="fill-rule: evenodd; fill: #ffffff; "
         id="path4" />
      <path
         d="  M352.4543,67.1057 C344.2343,67.1096 336.0097,67.2458 327.7955,67.0428 C324.4864,66.9617 323.7610,68.2418 323.9978,71.2394 C324.9588,83.3875 332.2218,93.6832 342.1879,96.0144 C355.4299,99.1100 368.5304,93.3821 372.9587,80.6527 C374.0780,77.4319 377.2300,76.7811 379.8104,75.7228 C381.2657,75.1259 380.8907,77.0341 380.7460,77.8523 C378.8482,88.6456 373.6329,97.2271 363.0900,101.2421 C343.9715,108.5220 322.3232,101.3498 317.3110,77.4857 C314.9914,66.4348 315.6480,55.4799 320.4727,45.1109 C326.7891,31.5341 338.6459,25.2612 354.1685,26.9579 C366.9298,28.3516 376.7511,37.4852 380.1523,51.0523 C381.2015,55.2366 381.5447,59.4657 381.5376,63.7675 C381.5337,66.2356 380.5780,67.1576 378.1280,67.1336 C369.5712,67.0525 361.0118,67.1012 352.4543,67.1057 Z Z M348.8682,60.0814 C354.5974,60.0814 360.3273,60.0814 366.0564,60.0814 C374.7767,60.0814 374.8819,59.9355 372.2385,51.5208 C366.6910,33.8563 346.8679,27.7696 333.5519,39.7496 C328.5384,44.2603 326.0644,50.2659 324.5137,56.7374 C323.8746,59.4047 324.7563,60.1398 327.2998,60.1080 C334.4888,60.0185 341.6792,60.0776 348.8682,60.0814 Z"
         style="fill-rule: evenodd; fill: #ffffff; "
         id="path5" />
      <path
         d="  M672.8561,26.8976 C678.3024,26.6484 682.8611,27.2979 687.2017,29.0212 C694.8463,32.0571 699.2934,37.7538 700.7215,45.8188 C701.1361,48.1585 696.6338,52.2669 694.3642,51.6810 C693.3559,51.4202 693.3721,50.5546 693.3455,49.7812 C692.9549,38.1756 684.1405,34.0652 675.2807,33.8297 C670.9842,33.7162 666.7103,33.8355 662.6227,35.3596 C655.6996,37.9426 652.4795,43.7367 654.5356,49.8766 C655.7503,53.5003 658.6401,55.4170 661.9434,56.7886 C667.4863,59.0913 673.3978,60.0386 679.2185,61.3090 C684.0581,62.3653 688.9153,63.3555 693.3358,65.7399 C704.8506,71.9499 706.6550,88.2764 696.8830,97.0019 C686.9695,105.8540 660.9403,107.3807 650.2819,94.6921 C646.6705,90.3916 644.5060,85.6065 644.0246,80.0590 C643.7585,76.9965 647.0922,73.4286 650.1353,73.4260 C651.9786,73.4234 651.5264,74.9092 651.5277,75.9000 C651.5348,81.0329 652.8740,85.6234 656.3154,89.5903 C661.3263,95.3688 667.9223,97.1616 675.1283,96.9533 C679.2464,96.8339 683.4366,96.3959 687.3101,94.5805 C692.3236,92.2330 695.3498,88.6327 695.3829,82.8334 C695.4166,77.0199 692.1355,73.7549 687.1920,71.6592 C682.3829,69.6212 677.2169,68.9529 672.1806,67.7915 C667.1360,66.6275 662.0666,65.5556 657.3152,63.4054 C643.6865,57.2389 643.6236,40.4711 651.8086,33.3171 C656.7832,28.9686 662.8498,27.4419 669.2421,26.9125 C670.6961,26.7951 672.1683,26.8976 672.8561,26.8976 Z"
         style="fill-rule: evenodd; fill: #ffffff; "
         id="path6" />
      <path
         d="  M254.9465,38.0231 C260.1242,32.6916 265.7412,28.7708 272.8880,27.4186 C278.3668,26.3818 283.8689,26.3947 289.2737,27.9143 C298.7485,30.5803 304.4420,37.7467 305.7527,48.3804 C306.2497,52.4161 306.3061,56.4603 306.3016,60.5142 C306.2873,72.3372 306.3029,84.1603 306.2919,95.9833 C306.2880,99.9282 304.1754,102.4664 300.3946,103.3319 C299.1424,103.6194 298.7148,103.1483 298.6733,102.0304 C298.6395,101.1311 298.6356,100.2292 298.6344,99.3293 C298.6318,85.7051 298.5896,72.0803 298.6623,58.4561 C298.6804,54.9498 298.3865,51.4825 297.9336,48.0281 C296.9377,40.4355 290.5888,34.4973 282.9462,33.8939 C266.5243,32.5969 255.5954,42.2905 255.0919,59.1341 C254.7292,71.2835 254.9868,83.4524 254.9628,95.6134 C254.9530,100.3188 253.9318,101.6255 249.4393,103.1808 C247.9067,103.7102 247.3228,103.2930 247.3033,101.7728 C247.2962,101.2096 247.2851,100.6464 247.2851,100.0832 C247.2838,77.5636 247.2825,55.0439 247.2877,32.5242 C247.2890,29.1354 249.9700,26.1002 253.2706,25.6907 C255.1392,25.4598 254.8953,26.9080 254.9180,27.9266 C254.9933,31.2889 254.9465,34.6570 254.9465,38.0231 Z"
         style="fill-rule: evenodd; fill: #ffffff; "
         id="path7" />
      <path
         d="  M50.9667,77.7478 C50.9680,85.0628 50.9823,92.3784 50.9511,99.6920 C50.9472,100.6601 51.4092,101.9850 50.4275,102.5034 C49.3024,103.0971 48.7016,101.7540 48.0418,101.0954 C32.5035,85.5994 16.9867,70.0812 1.4907,54.5430 C0.8379,53.8890 -0.4228,53.3089 0.1852,52.1138 C0.6459,51.2074 1.7878,51.4637 2.6592,51.4637 C17.6271,51.4494 32.5937,51.4864 47.5616,51.4260 C50.2510,51.4150 51.0387,52.5972 51.0037,55.1270 C50.8979,62.6664 50.9654,70.2071 50.9667,77.7478 Z"
         style="fill-rule: evenodd; fill: #3db54b; "
         id="path8" />
      <path
         d="  M431.1713,53.5678 C431.1713,38.3774 431.1687,23.1869 431.1726,7.9958 C431.1739,4.1054 434.3584,0.7925 438.1462,0.6445 C439.2317,0.6011 439.5244,1.1837 439.5542,2.0733 C439.5879,3.0848 439.5964,4.0976 439.5964,5.1104 C439.5977,34.0289 439.5964,62.9467 439.5990,91.8651 C439.5990,96.4602 439.6087,96.4679 444.2582,96.4699 C459.1113,96.4738 473.9644,96.4673 488.8174,96.4757 C492.4217,96.4770 495.1241,98.8303 495.7236,102.3412 C495.8916,103.3248 495.6172,103.8977 494.6602,104.0379 C493.8855,104.1514 493.0913,104.1670 492.3068,104.1670 C473.4025,104.1741 454.5000,104.1793 435.5957,104.1670 C431.3594,104.1644 431.1804,103.9834 431.1758,99.8159 C431.1629,84.3984 431.1713,68.9828 431.1713,53.5678 Z"
         style="fill-rule: evenodd; fill: #ffffff; "
         id="path9" />
      <path
         d="  M232.7630,62.8682 C232.7617,74.2247 232.7714,85.5825 232.7558,96.9390 C232.7519,99.8795 229.2619,103.4974 226.4563,103.5746 C225.6128,103.5973 225.1930,103.1808 225.1314,102.4093 C225.0600,101.5139 225.0490,100.6133 225.0490,99.7141 C225.0451,77.4494 225.0432,55.1847 225.0477,32.9200 C225.0490,29.0485 227.2453,26.4791 231.0137,25.7271 C232.6008,25.4105 232.7201,26.3714 232.7351,27.4471 C232.7714,30.0334 232.7617,32.6190 232.7630,35.2065 C232.7662,44.4258 232.7649,53.6463 232.7630,62.8682 Z"
         style="fill-rule: evenodd; fill: #ffffff; "
         id="path10" />
      <path
         d="  M232.7630,7.0083 C232.7630,8.1275 232.7740,9.2467 232.7617,10.3660 C232.7266,13.4830 229.6194,16.7537 226.5530,16.9906 C225.2080,17.0944 225.0866,16.2217 225.0795,15.2939 C225.0555,12.0497 225.0068,8.8010 225.1132,5.5594 C225.1677,3.9179 229.9659,0.3753 231.6016,0.5680 C232.7052,0.6984 232.7052,1.5432 232.7266,2.3094 C232.7701,3.8744 232.7390,5.4420 232.7390,7.0089 C232.7480,7.0083 232.7545,7.0083 232.7630,7.0083 Z"
         style="fill-rule: evenodd; fill: #ffffff; "
         id="path11" />
    </g>
  </g>
</svg>
